<svg xmlns="http://www.w3.org/2000/svg" width="256" height="256" fill="none"><g clip-path="url(#a)"><path fill="#F0F0F0" d="M0 0h256v256H0z"/><mask id="b" width="200" height="200" x="28" y="28" maskUnits="userSpaceOnUse" style="mask-type:alpha"><path fill="#D9D9D9" d="M28 28h200v200H28z"/></mask><g mask="url(#b)"><path fill="#D0D0D0" d="M128 128c-9.167 0-17.014-3.264-23.542-9.792-6.527-6.527-9.791-14.375-9.791-23.541 0-9.167 3.264-17.014 9.791-23.542 6.528-6.528 14.375-9.792 23.542-9.792 9.167 0 17.014 3.264 23.542 9.792 6.527 6.528 9.791 14.375 9.791 23.542 0 9.166-3.264 17.014-9.791 23.541C145.014 124.736 137.167 128 128 128Zm-50 66.667c-4.583 0-8.507-1.632-11.77-4.896-3.265-3.264-4.897-7.188-4.897-11.771v-6.667c0-4.722 1.216-9.062 3.646-13.02 2.43-3.959 5.66-6.98 9.688-9.063 8.61-4.306 17.36-7.535 26.25-9.687a114.64 114.64 0 0 1 27.083-3.23 114.64 114.64 0 0 1 27.083 3.23c8.889 2.152 17.639 5.381 26.25 9.687 4.028 2.083 7.257 5.104 9.688 9.063 2.43 3.958 3.646 8.298 3.646 13.02V178c0 4.583-1.632 8.507-4.896 11.771-3.264 3.264-7.188 4.896-11.771 4.896H78Z"/></g></g><defs><clipPath id="a"><path fill="#fff" d="M0 0h256v256H0z"/></clipPath></defs></svg>
