<svg xmlns="http://www.w3.org/2000/svg" width="72" height="72" fill="none"><g clip-path="url(#a)"><path fill="#F0F0F0" d="M0 0h72v72H0z"/><mask id="b" width="58" height="58" x="7" y="7" maskUnits="userSpaceOnUse" style="mask-type:alpha"><path fill="#D9D9D9" d="M7.875 7.875h56.25v56.25H7.875z"/></mask><g mask="url(#b)"><path fill="#D0D0D0" d="M36 36c-2.578 0-4.785-.918-6.621-2.754-1.836-1.836-2.754-4.043-2.754-6.621 0-2.578.918-4.785 2.754-6.621 1.836-1.836 4.043-2.754 6.621-2.754 2.578 0 4.785.918 6.621 2.754 1.836 1.836 2.754 4.043 2.754 6.621 0 2.578-.918 4.785-2.754 6.621C40.785 35.082 38.578 36 36 36ZM21.937 54.75c-1.289 0-2.392-.459-3.31-1.377-.918-.918-1.377-2.021-1.377-3.31v-1.876c0-1.328.342-2.548 1.025-3.662A6.834 6.834 0 0 1 21 41.977a34.79 34.79 0 0 1 7.383-2.725c2.5-.605 5.039-.908 7.617-.908 2.578 0 5.117.303 7.617.908A34.79 34.79 0 0 1 51 41.977a6.834 6.834 0 0 1 2.725 2.548 6.865 6.865 0 0 1 1.025 3.663v1.874c0 1.29-.459 2.393-1.377 3.311-.918.918-2.021 1.377-3.31 1.377H21.936Z"/></g></g><rect width="70" height="70" x="1" y="1" stroke="#fff" stroke-width="2" rx="35"/><defs><clipPath id="a"><rect width="72" height="72" fill="#fff" rx="36"/></clipPath></defs></svg>