<svg width="17" height="16" viewBox="0 0 17 16" fill="none" xmlns="http://www.w3.org/2000/svg">
<path d="M2.63843 13.4737V1.68421V5.45263V5.05263V13.4737ZM4.32264 8.42105H8.97528C9.00335 8.11228 9.07352 7.81754 9.1858 7.53684C9.29808 7.25614 9.43843 6.98947 9.60686 6.73684H4.32264V8.42105ZM4.32264 11.7895H7.62791C7.8665 11.5088 8.14019 11.2807 8.44896 11.1053C8.75773 10.9298 9.08054 10.786 9.41738 10.6737C9.36124 10.5895 9.31212 10.4982 9.27001 10.4C9.22791 10.3018 9.19282 10.2035 9.16475 10.1053H4.32264V11.7895ZM4.32264 5.05263H12.7437V3.36842H4.32264V5.05263ZM2.63843 15.1579C2.17528 15.1579 1.77879 14.993 1.44896 14.6632C1.11914 14.3333 0.954224 13.9368 0.954224 13.4737V1.68421C0.954224 1.22105 1.11914 0.824561 1.44896 0.494737C1.77879 0.164912 2.17528 0 2.63843 0H14.4279C14.8911 0 15.2876 0.164912 15.6174 0.494737C15.9472 0.824561 16.1121 1.22105 16.1121 1.68421V7.11579C15.9156 6.75088 15.677 6.42807 15.3963 6.14737C15.1156 5.86667 14.7928 5.63509 14.4279 5.45263V1.68421H2.63843V13.4737H6.89107C6.87703 13.5579 6.8665 13.6421 6.85949 13.7263C6.85247 13.8105 6.84896 13.8947 6.84896 13.9789V15.1579H2.63843ZM12.7437 10.9474C12.1542 10.9474 11.656 10.7439 11.249 10.3368C10.8419 9.92982 10.6384 9.43158 10.6384 8.8421C10.6384 8.25263 10.8419 7.75439 11.249 7.34737C11.656 6.94035 12.1542 6.73684 12.7437 6.73684C13.3332 6.73684 13.8314 6.94035 14.2384 7.34737C14.6455 7.75439 14.849 8.25263 14.849 8.8421C14.849 9.43158 14.6455 9.92982 14.2384 10.3368C13.8314 10.7439 13.3332 10.9474 12.7437 10.9474ZM8.53317 15.1579V13.9789C8.53317 13.6421 8.62089 13.3298 8.79633 13.0421C8.97177 12.7544 9.22089 12.5474 9.5437 12.4211C10.049 12.2105 10.5718 12.0526 11.1121 11.9474C11.6525 11.8421 12.1963 11.7895 12.7437 11.7895C13.2911 11.7895 13.8349 11.8421 14.3753 11.9474C14.9156 12.0526 15.4384 12.2105 15.9437 12.4211C16.2665 12.5474 16.5156 12.7544 16.6911 13.0421C16.8665 13.3298 16.9542 13.6421 16.9542 13.9789V15.1579H8.53317Z" fill="#1C1B1F"/>
</svg>
