 <svg xmlns="http://www.w3.org/2000/svg" viewBox="0 0 24 24" >
  <path d="M3.71765 20.2105V2.52632V8.17895V7.57895V20.2105ZM6.09506 12.6316H12.6741C12.7121 12.1684 12.8211 11.7263 
  13.0012 11.3053C13.1812 10.8842 13.3964 10.4842 13.6467 10.1053H6.09506V12.6316ZM6.09506 17.6842H10.7647C11.1057 17.2632 
  11.5078 16.9211 11.9711 16.6579C12.4344 16.3947 12.9272 16.1789 13.4494 16.0105C13.3697 15.8842 13.2996 15.7474 13.2392 
  15.6C13.1787 15.4526 13.1278 15.3053 13.0867 15.1579H6.09506V17.6842ZM6.09506 
  7.57895H17.9867V5.05263H6.09506V7.57895ZM3.71765 22.7368C2.95775 22.7368 2.32169 22.4895 1.80946 21.9947C1.29723 21.5 
  1.04112 20.8632 1.04112 20.0842V2.52632C1.04112 1.74737 1.29723 1.11053 1.80946 0.615789C2.32169 0.121053 2.95775 
  -0.126316 3.71765 -0.126316H20.3193C21.0792 -0.126316 21.7153 0.121053 22.2275 0.615789C22.7398 1.11053 22.9959 1.74737 
  22.9959 2.52632V10.6737C22.7183 10.1263 22.3588 9.64211 21.9175 9.22105C21.4762 8.8 21.0056 8.47368 20.5058 
  8.17895V2.52632H3.71765V20.2105H9.69723C9.67783 20.3368 9.66265 20.4632 9.65168 20.5895C9.64072 20.7158 9.63524 20.8421 
  9.63524 20.9684V22.7368H3.71765ZM17.9867 16.4211C16.9867 16.4211 16.1549 16.0658 15.4924 15.3553C14.8299 14.6447 14.4986 
  13.7368 14.4986 12.6316C14.4986 11.5263 14.8299 10.6184 15.4924 9.90789C16.1549 9.19737 16.9867 8.84211 17.9867 
  8.84211C18.9867 8.84211 19.8185 9.19737 20.481 9.90789C21.1435 10.6184 21.4747 11.5263 21.4747 12.6316C21.4747 13.7368 
  21.1435 14.6447 20.481 15.3553C19.8185 16.0658 18.9867 16.4211 17.9867 16.4211ZM12.0253 22.7368V20.9684C12.0253 20.4632 
  12.1518 20.0316 12.4048 19.6737C12.6578 19.3158 13.0133 19.0737 13.4711 18.9474C14.2253 18.6316 15.0108 18.4105 15.8277 
  18.2842C16.6446 18.1579 17.4687 18.0947 18.2999 18.0947C19.1311 18.0947 19.9553 18.1579 20.7722 18.2842C21.589 18.4105 
  22.3747 18.6316 23.1289 18.9474C23.5867 19.0737 23.9422 19.3158 24.1952 19.6737C24.4482 20.0316 24.5747 20.4632 24.5747 
  20.9684V22.7368H12.0253Z" />
  </svg>