<svg xmlns="http://www.w3.org/2000/svg" version="1.1" viewBox="0 0 24 24">
<path d="M19,5.2h-2.7l1.7-1.7c.3-.3.3-.8,0-1.1s-.8-.3-1.1,0l-2.8,2.8h-4.4l-2.8-2.8c-.3-.3-.8-.3-1.1,0s-.3.8,0,1.1l1.7,1.7h-2.7c-2.1,0-3.8,1.7-3.8,3.8v8.2c0,2.1,1.7,3.8,3.8,3.8h14c2.1,0,3.8-1.7,3.8-3.8v-8.2c0-2.1-1.7-3.8-3.8-3.8ZM21.2,17.2c0,1.2-1,2.2-2.2,2.2H5c-1.2,0-2.2-1-2.2-2.2v-8.2c0-1.2,1-2.2,2.2-2.2h14c1.2,0,2.2,1,2.2,2.2v8.2Z M8.5,10.5c-.6,0-1,.4-1,1v1.5c0,.6.4,1,1,1s1-.4,1-1v-1.5c0-.6-.4-1-1-1Z M15.5,10.5c-.6,0-1,.4-1,1v1.5c0,.6.4,1,1,1s1-.4,1-1v-1.5c0-.6-.4-1-1-1Z"/>
</svg>