<svg xmlns="http://www.w3.org/2000/svg" viewBox="0 0 24 24"><path d="m19.715 18.107-.332-.433-.26.2.054.323.538-.09Zm-1.628.867.244-.489-.205-.102-.218.075.179.516Zm2.82-4.144c0 1.092-.563 2.107-1.524 2.844l.664.867C21.227 17.636 22 16.32 22 14.83h-1.092Zm-4.975-3.954c2.857 0 4.976 1.87 4.976 3.954H22c0-2.886-2.826-5.046-6.068-5.046v1.092Zm-4.976 3.954c0-2.085 2.118-3.954 4.976-3.954V9.784c-3.241 0-6.068 2.16-6.068 5.046h1.092Zm4.976 3.954c-2.857 0-4.976-1.87-4.976-3.954H9.864c0 2.886 2.827 5.046 6.068 5.046v-1.093Zm1.976-.326a6.029 6.029 0 0 1-1.976.326v1.092a7.164 7.164 0 0 0 2.333-.386l-.357-1.032Zm-.065 1.004 1.627.814.489-.977-1.628-.814-.488.977Zm1.627.814a.722.722 0 0 0 1.033-.763l-1.077.18a.37.37 0 0 1 .533-.394l-.49.977Zm1.033-.763-.249-1.496-1.077.18.25 1.495 1.076-.179ZM6.718 15.234l.18-.515-.218-.077-.207.104.245.489ZM4.681 14.12l.539.09.052-.318-.25-.2-.34.428Zm11.892-3.746a6.25 6.25 0 0 0 .016-.433h-1.092c0 .116-.005.232-.014.347l1.09.086Zm-.64.502h.087l.015-1.092h-.105l.002 1.092Zm-4.977 3.953c0-2.084 2.118-3.953 4.976-3.953V9.784c-3.241 0-6.069 2.16-6.069 5.045h1.093Zm.064.638a3.15 3.15 0 0 1-.064-.638H9.863c0 .293.03.58.088.858l1.07-.22Zm-1.725.745c.425 0 .85-.032 1.272-.094l-.163-1.08a7.426 7.426 0 0 1-1.11.082v1.092Zm-2.758-.463a8.33 8.33 0 0 0 2.758.463V15.12c-.851 0-1.66-.143-2.396-.402l-.362 1.031Zm-.064-1.003-2.117 1.058.489.977 2.117-1.058-.489-.977Zm-2.117 1.058a.372.372 0 0 1 .533.393l-1.078-.179a.721.721 0 0 0 1.034.763l-.489-.977Zm.533.393.33-1.987-1.077-.18-.33 1.988 1.077.18ZM2 9.941c0 1.839.917 3.473 2.342 4.606l.68-.856c-1.206-.957-1.93-2.293-1.93-3.75H2Zm7.295-6.273C5.355 3.668 2 6.396 2 9.941h1.092c0-2.78 2.69-5.18 6.203-5.18V3.667Zm7.294 6.273c0-3.545-3.352-6.273-7.294-6.273V4.76c3.514 0 6.202 2.4 6.202 5.18h1.092Zm-3.12 3.884a.437.437 0 1 0 .873 0 .437.437 0 0 0-.874 0ZM6.914 8.583a.437.437 0 1 0 .874 0 .437.437 0 0 0-.874 0ZM17.4 13.825a.437.437 0 1 0 .874 0 .437.437 0 0 0-.874 0Zm-6.116-5.242a.437.437 0 1 0 .874 0 .437.437 0 0 0-.874 0Z"/></svg>