<svg xmlns="http://www.w3.org/2000/svg" viewBox="0 0 24 24"><path d="M20.671 10.519c.002.013.009.016.059.016h.604a.664.664 0 1 0-.087-1.325.662.662 0 0 0-.577.661v.648m-9.59 4.006c-.17.001-1.128.004-1.404.003a2.086 2.086 0 0 1-.639-.105.02.02 0 0 0-.025.012l-.595 1.29a.02.02 0 0 0 .009.027c.091.05.28.103.412.103.55.008 1.1.002 1.65 0a.02.02 0 0 0 .02-.012l.594-1.288a.023.023 0 0 0 .002-.008l-.001-.008a.021.021 0 0 0-.011-.012l-.01-.002h-.003Zm-8.68-3.98c-.06 0-.064.001-.064.008l-.01.066c-.022.331-.032.413-.195 2.55-.01.2-.028.325-.112.506-.022.048-.028.035.002.094.038.076.567 1.269.656 1.45.007.012.008.016.014.016s.028-.021.04-.036c.12-.157.224-.325.308-.505.207-.45.344-.93.405-1.422.012-.092.017-.183.025-.275l.17-2.18.019-.244c.002-.024 0-.028-.025-.028H2.399Zm6.002 3.13a1.167 1.167 0 0 1-.113-.506c-.003-.07-.026-.325-.196-2.55a.333.333 0 0 0-.008-.068c-.003-.009-.043-.006-.063-.006H6.788c-.025 0-.028.004-.025.028l.017.244c.064.818.129 1.637.195 2.455a4.8 4.8 0 0 0 .406 1.422c.086.179.186.349.308.505.013.015.031.042.04.04.017-.002.619-1.368.67-1.47.03-.059.025-.046.003-.094Zm3.216-.76h-.726a.105.105 0 0 1-.096-.149l.981-2.187.002-.01-.003-.01a.025.025 0 0 0-.018-.01l-1.098-.002a.125.125 0 0 1-.104-.057.123.123 0 0 1-.009-.118l.73-1.628.002-.01-.003-.01a.025.025 0 0 0-.018-.01h-1.3a.02.02 0 0 0-.02.013l-.771 1.723c-.071.141-.262.529-.334.782a.442.442 0 0 0 .04.342c.033.055.08.1.136.132.118.064.25.098.383.1h.492c.033 0-.573 1.234-.695 1.643a.442.442 0 0 0 .033.334c.034.059.08.106.14.14.125.077.285.1.395.1h1.384c.01 0 .016-.004.019-.013l.48-1.066a.026.026 0 0 0-.002-.02.025.025 0 0 0-.02-.01ZM5.843 8.8H4.584a.027.027 0 0 0-.028.028c0 .873-.008 2.329-.008 5.69 0 .24-.225.219-.234.219h-.616c-.034 0-.037.003-.034.04 0 .03.388.886.463 1.052a.048.048 0 0 0 .041.027c.132.002.64.008.783-.012.127-.016.25-.05.365-.11.25-.13.408-.349.496-.637.043-.143.062-.294.062-.444a1566.96 1566.96 0 0 0-.007-5.836.025.025 0 0 0-.024-.017Zm9.82 5.747c-.001-.011-.008-.017-.02-.018h-1.22c-.04-.001-.042-.002-.042-.041v-3.883c0-.06-.005-.059.058-.059h.72c.066 0 .062.004.062-.061V9.28c0-.068.005-.063-.067-.063h-2.917c-.053 0-.062-.005-.062.06v1.205c0 .07-.005.064.066.064h.712c.063 0 .059-.003.059.059v3.853c0 .079.006.07-.071.07-.309 0-.925-.002-1.087 0-.04 0-.05.025-.05.025l-.58 1.265s-.012.021-.007.03c.005.01.01.007.048.007 1.456.002 2.912.002 4.369.002.025-.001.028-.005.03-.028v-1.282Zm3.48-2.858c0 .011-.005.018-.016.02-.288.005-.576.003-.864.003-.012-.002-.018-.008-.018-.02l-.009-1.086c0-.06-.005-.059.059-.058l.61-.003c.034 0 .067.002.1.013.078.02.134.089.138.17.004.32.004.64 0 .96m2.225.204a1.625 1.625 0 0 0-.736-.185h-.15c-.033 0-.033-.003-.035-.033v-.88c0-.11-.006-.219-.02-.328a1.502 1.502 0 0 0-.128-.441 1.275 1.275 0 0 0-.564-.592 1.833 1.833 0 0 0-.834-.215c-.127-.003-.472 0-.6 0-.058 0-.056.003-.056-.054v-.411c0-.026-.009-.034-.039-.033h-1.264s-.013 0-.019.006c-.005.005-.007.011-.007.02V9.2c-.006.03-.047.013-.068.019h-.792c-.018.001-.023.006-.025.026v1.235c0 .075-.003.068.069.068h.76c.069 0 .06.107.06.107v.956s.003.098-.05.098h-1.234c-.057 0-.05.068-.05.068v1.204s-.009.057.053.057h1.214c.068 0 .063-.005.063.066v2.687c0 .073-.006.067.069.067h1.191c.075 0 .069.006.069-.066v-2.725c0-.024.005-.03.027-.03l1.936-.002c.08.001.16.018.233.051a.384.384 0 0 1 .229.34c.006.328.002.658.002.987 0 .216-.09.306-.275.306h-1.015c-.019.001-.025.006-.023.027.153.364.311.726.475 1.086a.04.04 0 0 0 .014.015.04.04 0 0 0 .02.007c.14.004.282.001.424.002.125-.002.43.003.555-.008.116-.01.229-.03.34-.063A1.13 1.13 0 0 0 22 14.691v-1.65c0-.107-.009-.212-.028-.317 0 .065-.025-.534-.603-.832"/></svg>