<svg xmlns="http://www.w3.org/2000/svg" viewBox="0 0 24 24"><path d="M14.278 12.52h-1V9.773a.473.473 0 0 0-.474-.467.473.473 0 0 0-.475.467v3.182c0 .233.2.433.45.433h1.5a.44.44 0 0 0 .449-.433.44.44 0 0 0-.45-.433Zm2.424-1.365 1.066-1.067a.352.352 0 0 0 .1-.283.442.442 0 0 0-.141-.3.463.463 0 0 0-.325-.141c-.1 0-.192.033-.258.108l-1.308 1.308V9.772a.466.466 0 1 0-.933 0v3.207a.466.466 0 1 0 .933 0v-1.025l.167-.166 1.099 1.457a.47.47 0 0 0 .375.184c.1 0 .2-.034.283-.092a.46.46 0 0 0 .183-.308.477.477 0 0 0-.091-.35l-1.15-1.524Zm-5.797-1.392c-.084-.224-.317-.458-.625-.466-.308 0-.542.242-.625.466l-1.124 2.95c-.142.44-.017.607.108.666a.72.72 0 0 0 .3.066c.191 0 .341-.083.391-.208l.234-.608h1.432l.233.608c.042.125.192.208.392.208a.75.75 0 0 0 .3-.066c.133-.059.25-.225.108-.667l-1.116-2.949h-.008Zm-1.092 2.033.467-1.333.466 1.333h-.933Zm-.65-2.033a.462.462 0 0 0-.457-.458h-2.4a.462.462 0 0 0-.458.458c0 .25.209.459.459.459h.733v2.782c0 .25.208.45.466.45s.467-.2.467-.45v-2.782h.733c.25 0 .458-.209.458-.459ZM20.427 2H3.566C2.7 2 2 2.7 2 3.566v16.868C2 21.3 2.7 22 3.566 22h16.868C21.3 22 22 21.3 22 20.434V3.566C22 2.7 21.3 2 20.434 2h-.008Zm-8.43 15.619c-.492 0-.975-.034-1.441-.1-.467.333-3.174 2.232-3.432 2.265 0 0-.108.042-.192-.008-.091-.05-.075-.192-.075-.192.025-.183.7-2.515.825-2.94-2.29-1.133-3.807-3.14-3.807-5.423 0-3.54 3.64-6.406 8.122-6.406 4.481 0 8.121 2.866 8.121 6.406 0 3.54-3.64 6.406-8.121 6.406v-.008Z"/></svg>