<svg viewBox="0 0 24 24" xmlns="http://www.w3.org/2000/svg">
<path d="M12 24C18.627 24 24 18.627 24 12C24 5.373 18.627 0 12 0C5.373 0 0 5.373 0 12C0 18.627 5.373 24 12 24Z M8.41 7.22 C9.566 7.22 10.503 8.157 10.503 9.315 V10.213 H6.315 V9.315 C6.315 8.157 7.252 7.22 8.41 7.22Z M15.597 7.22 C16.755 7.22 17.692 8.157 17.692 9.315 V10.213 H13.502 V9.315 C13.502 8.157 14.439 7.22 15.597 7.22Z M8.01 14.889 C8.023 14.916 8.265 15.354 8.817 15.794 C9.418 16.275 10.421 16.794 12.02 16.794 C13.619 16.794 14.622 16.275 15.223 15.794 C15.775 15.353 16.02 14.913 16.033 14.889 C16.249 14.444 16.747 14.266 17.219 14.474 C17.661 14.695 17.836 15.244 17.614 15.678 C17.614 15.678 17.532 15.861 17.286 16.19 C17.08 16.465 16.766 16.822 16.324 17.176 C15.428 17.893 14.035 18.57 12.02 18.57 C10.005 18.57 8.612 17.893 7.716 17.176 C7.274 16.822 6.96 16.465 6.754 16.19 C6.635 16.031 6.521 15.865 6.429 15.688 C6.207 15.251 6.382 14.695 6.824 14.474 C7.296 14.266 7.794 14.444 8.01 14.889Z"/>
</svg>
