<svg width="234" height="234" viewBox="0 0 234 234" fill="none" xmlns="http://www.w3.org/2000/svg">
<path fill-rule="evenodd" clip-rule="evenodd" d="M117 233.667C181.433 233.667 233.667 181.433 233.667 117C233.667 52.5668 181.433 0.333374 117 0.333374C52.5669 0.333374 0.333496 52.5668 0.333496 117C0.333496 181.433 52.5669 233.667 117 233.667ZM82 70.3333C70.7242 70.3333 61.5833 79.4742 61.5833 90.75V99.5H102.417V90.75C102.417 79.4742 93.2758 70.3333 82 70.3333ZM78.1058 145.096C75.9218 140.828 70.7015 139.108 66.4041 141.257C62.0826 143.418 60.3658 148.799 62.537 153.087C63.4294 154.809 64.5251 156.43 65.687 157.979C67.6967 160.659 70.7493 164.134 75.0595 167.583C83.7908 174.568 97.3583 181.167 116.984 181.167C136.609 181.167 150.177 174.568 158.908 167.583C163.218 164.134 166.271 160.659 168.281 157.979C170.681 154.779 171.477 152.996 171.477 152.996C173.638 148.674 171.886 143.418 167.564 141.257C163.266 139.108 158.046 140.828 155.862 145.096C155.738 145.325 153.353 149.616 147.976 153.917C142.124 158.599 132.358 163.667 116.984 163.667C101.609 163.667 91.8437 158.599 85.9916 153.917C80.6167 149.617 78.2306 145.328 78.1058 145.096ZM131.583 90.75C131.583 79.4742 140.724 70.3333 152 70.3333C163.276 70.3333 172.417 79.4742 172.417 90.75V99.5H131.583V90.75Z" fill="#050500"/>
</svg>
