<svg xmlns="http://www.w3.org/2000/svg" viewBox="0 0 24 24"><path d="M21.214 8.107A9.966 9.966 0 0 0 19.07 4.93 9.966 9.966 0 0 0 12 2a9.966 9.966 0 0 0-7.071 2.929A9.965 9.965 0 0 0 2 12a9.966 9.966 0 0 0 2.929 7.071A9.966 9.966 0 0 0 12 22a9.966 9.966 0 0 0 7.071-2.929A9.966 9.966 0 0 0 22 12c0-1.35-.265-2.66-.786-3.893ZM19.95 11h-1.975c-.12-2.076-.67-3.939-1.475-5.5.39.271.76.58 1.103.923 1.273 1.272 2.13 2.819 2.347 4.577Zm-9.29-6.497c.112-.086.226-.164.34-.228V11H8.025c.12-1.854.58-3.559 1.314-4.878.386-.695.843-1.255 1.32-1.62ZM11 13v6.725a2.964 2.964 0 0 1-.34-.228c-.478-.364-.935-.924-1.321-1.619-.733-1.32-1.194-3.024-1.314-4.878H11Zm2.34 6.497a2.964 2.964 0 0 1-.34.228V13h2.975c-.12 1.854-.58 3.559-1.314 4.878-.386.695-.843 1.255-1.32 1.62ZM13 11V4.275c.114.064.228.142.34.228.478.364.935.924 1.321 1.619.734 1.32 1.194 3.024 1.314 4.878H13ZM6.397 6.423A8.092 8.092 0 0 1 7.5 5.5C6.694 7.061 6.145 8.924 6.025 11H4.05c.218-1.758 1.074-3.305 2.347-4.577ZM4.05 13h1.975c.12 2.076.67 3.939 1.475 5.5-.39-.271-.76-.58-1.103-.923C5.124 16.305 4.267 14.758 4.05 13Zm13.553 4.577a8.091 8.091 0 0 1-1.103.923c.806-1.561 1.355-3.424 1.475-5.5h1.975c-.218 1.758-1.074 3.305-2.347 4.577Z"/></svg>