<svg xmlns="http://www.w3.org/2000/svg" viewBox="0 0 24 24"><path d="m12 20.973-.287-.083a14.505 14.505 0 0 1-6.853-4.493 12.587 12.587 0 0 1-2.086-3.451A10.65 10.65 0 0 1 2 8.998c0-.266.026-.976.27-1.84.246-.874.63-1.605 1.14-2.173C4.46 3.722 5.98 2.998 7.583 2.998c.722 0 1.426.154 2.092.458.65.296 1.231.721 1.729 1.262.22.24.42.506.596.78.177-.274.376-.54.596-.78a5.378 5.378 0 0 1 1.73-1.262 5.005 5.005 0 0 1 2.091-.458c1.602 0 3.122.724 4.173 1.987.51.568.894 1.299 1.14 2.173a7.03 7.03 0 0 1 .27 1.84c0 1.328-.26 2.657-.774 3.948a12.587 12.587 0 0 1-2.086 3.45 14.505 14.505 0 0 1-6.853 4.494l-.287.082Z"/></svg>