<svg xmlns="http://www.w3.org/2000/svg" viewBox="0 0 24 24">
<path d="M8 0C7.41187 0 6.96313 0.000732422 6.60449 0.00244141C5.63818 0.00708008 5.3252 0.0195312 4.70312 0.046875C3.85303 0.0844727 3.2688 0.221924 2.76245 0.418701C2.23438 0.625 1.7876 0.896973 1.34375 1.34375C1.09424 1.59155 0.89917 1.84033 0.739746 2.10327C0.61377 2.31104 0.509766 2.52759 0.418701 2.75928C0.38501 2.84619 0.353271 2.9353 0.323242 3.02734C0.177979 3.47485 0.078125 3.99512 0.046875 4.69995C0.0317383 5.04321 0.0212402 5.29272 0.0141602 5.60815C0.00341797 6.07959 0 6.69873 0 8C0 8.43237 0.000488281 8.78931 0.00146484 9.09058C0.00488281 10.3032 0.0168457 10.6138 0.046875 11.2969C0.0844727 12.147 0.221924 12.7312 0.418701 13.2375C0.625 13.7656 0.896973 14.2124 1.34375 14.6562C1.44531 14.7578 1.54712 14.8506 1.6499 14.9358C1.99634 15.2224 2.35449 15.4216 2.75928 15.5781C3.2688 15.7749 3.8501 15.9126 4.69995 15.95C5.55322 15.9875 5.82495 15.9968 7.99683 15.9968C10.1687 15.9968 10.4407 15.9875 11.2937 15.95C11.6287 15.9353 11.9224 15.905 12.1863 15.8616C12.592 15.7949 12.9275 15.6973 13.2344 15.5781C13.7593 15.375 14.2063 15.1001 14.6499 14.6562C15.0938 14.2124 15.3687 13.7656 15.5718 13.2407C15.7688 12.7312 15.9062 12.1499 15.9438 11.3C15.9539 11.0735 15.9617 10.8879 15.968 10.6968C15.9856 10.1685 15.9907 9.59839 15.9907 8.00317C15.9907 7.10449 15.989 6.53101 15.9844 6.10718C15.978 5.50659 15.9658 5.2063 15.9438 4.7063C15.9255 4.2915 15.8833 3.93994 15.822 3.62988C15.7578 3.30444 15.6726 3.0249 15.5718 2.76562C15.5081 2.59375 15.4365 2.43066 15.3538 2.27368C15.1807 1.94556 14.9585 1.64404 14.6562 1.34375C14.384 1.07153 14.1106 0.862793 13.8186 0.695312C13.6348 0.5896 13.4436 0.500488 13.2407 0.421875C12.7312 0.225098 12.1499 0.0874023 11.3 0.0500488C10.9951 0.0356445 10.7644 0.0251465 10.4956 0.0175781C10.2678 0.0109863 10.0129 0.00683594 9.6626 0.00415039C9.26465 0.000976562 8.74365 0 8 0ZM8 1.44067C10.1375 1.44067 10.3906 1.44995 11.2312 1.48755C12.0125 1.52197 12.4343 1.65308 12.7156 1.76245C13.0874 1.90625 13.3562 2.0813 13.6343 2.35938C13.9155 2.64062 14.0874 2.90625 14.2312 3.27808C14.3406 3.55933 14.4719 3.98438 14.5063 4.76245C14.5437 5.6062 14.5532 5.85938 14.5532 7.99365C14.5532 10.1313 14.5437 10.3843 14.5063 11.2251C14.4719 12.0063 14.3406 12.4282 14.2312 12.7095C14.0874 13.0813 13.9126 13.3501 13.6343 13.6282C13.353 13.9094 13.0874 14.0813 12.7156 14.2251C12.4343 14.3345 12.0093 14.4656 11.2312 14.5C10.3875 14.5376 10.1343 14.5469 8 14.5469C5.86255 14.5469 5.60938 14.5376 4.7688 14.5C4.33545 14.481 4.01245 14.4321 3.76294 14.3735C3.56274 14.3267 3.40967 14.2737 3.28442 14.2251C2.9126 14.0813 2.6438 13.9062 2.36572 13.6282C2.08447 13.3469 1.9126 13.0813 1.7688 12.7095C1.65942 12.4282 1.52808 12.0032 1.49365 11.2251C1.47852 10.8848 1.46802 10.6406 1.46094 10.3303C1.4502 9.87109 1.44678 9.26709 1.44678 7.99365C1.44678 5.8562 1.4563 5.60303 1.49365 4.76245C1.52808 3.9812 1.65942 3.55933 1.7688 3.27808C1.83301 3.1123 1.90308 2.96704 1.98584 2.83228C2.04517 2.73584 2.11084 2.64478 2.18555 2.55566C2.24048 2.48975 2.30029 2.4248 2.36572 2.35938C2.64697 2.07812 2.9126 1.90625 3.28442 1.76245C3.44043 1.70166 3.64087 1.63428 3.92114 1.58057C4.146 1.53735 4.42236 1.50293 4.7688 1.48755C5.60938 1.44995 5.86255 1.44067 8 1.44067Z M8 3.89062C5.7312 3.89062 3.89062 5.7312 3.89062 8C3.89062 10.2688 5.7312 12.1094 8 12.1094C10.2688 12.1094 12.1094 10.2688 12.1094 8C12.1094 5.7312 10.2688 3.89062 8 3.89062ZM8 10.6655C6.52808 10.6655 5.33447 9.47192 5.33447 8C5.33447 6.52808 6.52808 5.33447 8 5.33447C9.47192 5.33447 10.6655 6.52808 10.6655 8C10.6655 9.47192 9.47192 10.6655 8 10.6655Z M12.272 4.6875C12.8 4.6875 13.2312 4.25952 13.2312 3.72827C13.2312 3.19995 12.8 2.7688 12.272 2.7688C11.7437 2.7688 11.3125 3.19702 11.3125 3.72827C11.3125 4.25635 11.7407 4.6875 12.272 4.6875Z" />
</svg>