<svg xmlns="http://www.w3.org/2000/svg" width="24" height="24">
<path d="M14.74,12.63h-1.2v-3.3c0-.31-.26-.56-.57-.56s-.57.25-.57.56v3.82c0,.28.24.52.54.52h1.8c.3,0,.54-.23.54-.52s-.24-.52-.54-.52Z M17.65,10.99h0s1.28-1.28,1.28-1.28c.09-.09.13-.21.12-.34,0-.13-.07-.26-.17-.36-.11-.11-.25-.17-.39-.17-.12,0-.23.04-.31.13l-1.57,1.57v-1.21c0-.31-.25-.56-.56-.56s-.56.25-.56.56v3.85c0,.31.25.56.56.56.31,0,.56-.25.56-.56v-1.23l.2-.2,1.32,1.75c.11.14.27.22.45.22.12,0,.24-.04.34-.11.12-.09.2-.22.22-.37.02-.15-.02-.3-.11-.42l-1.38-1.83Z M10.69,9.32c-.1-.27-.38-.55-.75-.56-.37,0-.65.29-.75.56l-1.35,3.54c-.17.53-.02.73.13.8.11.05.23.08.36.08.23,0,.41-.1.47-.25l.28-.73h1.72l.28.73c.05.15.23.25.47.25.12,0,.25-.03.36-.08.16-.07.3-.27.13-.8l-1.34-3.54ZM9.38,11.76h0l.56-1.6.56,1.6h-1.12Z M8.6,9.32c0-.3-.25-.55-.55-.55h-2.88c-.3,0-.55.25-.55.55s.25.55.55.55h.88v3.34c0,.3.25.54.56.54s.56-.24.56-.54v-3.34h.88c.3,0,.55-.25.55-.55ZM22.12,0H1.88C.84,0,0,.84,0,1.88v20.25c0,1.04.84,1.88,1.88,1.88h20.25c1.04,0,1.88-.84,1.88-1.88V1.88c0-1.04-.84-1.88-1.88-1.88ZM12,18.75h0c-.59,0-1.17-.04-1.73-.12-.56.4-3.81,2.68-4.12,2.72,0,0-.13.05-.23-.01-.11-.06-.09-.23-.09-.23.03-.22.84-3.02.99-3.53-2.75-1.36-4.57-3.77-4.57-6.51,0-4.25,4.37-7.69,9.75-7.69s9.75,3.44,9.75,7.69-4.37,7.69-9.75,7.69Z"/>
</svg>