<svg xmlns="http://www.w3.org/2000/svg" viewBox="0 0 24 24"><path d="M5.025 13.8a7.158 7.158 0 0 0 1.884 3.291A7.153 7.153 0 0 0 12 19.2a7.153 7.153 0 0 0 5.091-2.109A7.153 7.153 0 0 0 19.2 12a7.153 7.153 0 0 0-2.109-5.091A7.153 7.153 0 0 0 12 4.8a7.153 7.153 0 0 0-5.091 2.109A7.21 7.21 0 0 0 5.768 8.4H8.4v1.8H3V4.8h1.8v1.8A8.97 8.97 0 0 1 12 3a8.97 8.97 0 0 1 6.364 2.636A8.97 8.97 0 0 1 21 12a8.971 8.971 0 0 1-2.636 6.364A8.971 8.971 0 0 1 12 21a8.97 8.97 0 0 1-6.364-2.636A8.97 8.97 0 0 1 3.18 13.8h1.845Z"/></svg>