<svg xmlns="http://www.w3.org/2000/svg" viewBox="0 0 24 24"><path d="m20.82 19.54-5.699-5.71a6.8 6.8 0 0 0 1.405-4.157c0-1.83-.713-3.552-2.008-4.846A6.808 6.808 0 0 0 9.673 2.82c-1.83 0-3.552.713-4.846 2.007A6.808 6.808 0 0 0 2.82 9.673c0 1.83.713 3.551 2.007 4.845a6.808 6.808 0 0 0 4.846 2.008c1.522 0 2.969-.494 4.157-1.405l5.71 5.699 1.28-1.28Zm-14.7-6.314a4.993 4.993 0 0 1-1.473-3.553c0-1.343.523-2.605 1.472-3.554a4.993 4.993 0 0 1 3.554-1.472c1.342 0 2.604.523 3.553 1.472a4.993 4.993 0 0 1 1.472 3.554 4.993 4.993 0 0 1-1.472 3.553 4.993 4.993 0 0 1-3.553 1.472 4.993 4.993 0 0 1-3.554-1.472Z"/></svg>