<svg xmlns="http://www.w3.org/2000/svg" viewBox="0 0 24 24"><path d="m11 16-3.5-3.5L9 11l2 2 4-4 1.5 1.5L11 16Zm-3-6V8H5.075a8.012 8.012 0 0 1 1.268-1.657A7.948 7.948 0 0 1 12 4c2.137 0 4.146.832 5.657 2.343A7.947 7.947 0 0 1 20 12h2a9.968 9.968 0 0 0-2.929-7.071A9.967 9.967 0 0 0 12 2a9.966 9.966 0 0 0-8 4V4H2v6h6Zm8 4v2h2.925a8.007 8.007 0 0 1-1.268 1.657A7.947 7.947 0 0 1 12 20a7.947 7.947 0 0 1-5.657-2.343A7.947 7.947 0 0 1 4 12c0-2.137-2 0-2 0a9.966 9.966 0 0 0 2.929 7.071A9.968 9.968 0 0 0 12 22a9.968 9.968 0 0 0 8-4v2h2v-6h-6Z"/></svg>