<svg xmlns="http://www.w3.org/2000/svg" viewBox="0 0 24 24"><path d="m20.65 18.901-.38-.496-.298.229.062.37zm-1.864.992.28-.559-.235-.117-.249.085zm2.15.72-.617.102zm1.079-5.463c0 1.25-.645 2.412-1.745 3.255l.76.992c1.35-1.035 2.235-2.54 2.235-4.247zm-5.695-4.525c3.27 0 5.695 2.14 5.695 4.525h1.25c0-3.303-3.235-5.775-6.945-5.775zm-5.695 4.525c0-2.386 2.424-4.525 5.695-4.525v-1.25c-3.71 0-6.945 2.472-6.945 5.775zm5.695 4.525c-3.27 0-5.695-2.14-5.695-4.525h-1.25c0 3.303 3.235 5.775 6.945 5.775zm2.262-.373a6.9 6.9 0 0 1-2.262.373v1.25a8.2 8.2 0 0 0 2.67-.441zm-.075 1.15 1.862.931.56-1.118-1.863-.93zm1.862.931a.825.825 0 0 0 1.183-.873l-1.233.205a.425.425 0 0 1 .61-.45zm1.183-.873-.285-1.712-1.233.206.285 1.711z m16.43 10-.009.626.586.008.046-.584zm-6.343 6.006.093.617.652-.098-.133-.645zm-4.312-.393.207-.59-.25-.088-.237.119zM3.35 16.824l.28.56zm-.286-.211-.617-.103zm.379-2.276.616.103.06-.363-.287-.23zm13.61-4.287q.018-.247.019-.496h-1.25q0 .2-.016.397zm-.734.575h.101l.018-1.25h-.12zm-5.695 4.524c0-2.385 2.424-4.524 5.695-4.524v-1.25c-3.71 0-6.945 2.472-6.945 5.774zm.074.73a3.6 3.6 0 0 1-.074-.73h-1.25q0 .503.1.982zm-1.975.853a10 10 0 0 0 1.456-.108l-.186-1.236a8.5 8.5 0 0 1-1.27.094zm-3.156-.53c.975.342 2.041.53 3.156.53v-1.25c-.974 0-1.9-.164-2.742-.46zm-.073-1.148-2.423 1.211.559 1.118 2.423-1.211zm-2.423 1.211a.425.425 0 0 1 .61.45l-1.234-.205a.825.825 0 0 0 1.183.873zm.61.45.378-2.275-1.233-.206-.379 2.276zM.374 9.554c0 2.105 1.05 3.976 2.68 5.272l.778-.978c-1.379-1.096-2.208-2.626-2.208-4.294zm8.349-7.179c-4.51 0-8.349 3.122-8.349 7.179h1.25c0-3.182 3.078-5.929 7.099-5.929zm8.349 7.179c0-4.057-3.838-7.179-8.35-7.179v1.25c4.022 0 7.1 2.747 7.1 5.929z M13.5 14a.5.5 0 1 0 1 0 .5.5 0 1 0-1 0M6 8a.5.5 0 1 0 1 0 .5.5 0 1 0-1 0m12 6a.5.5 0 1 0 1 0 .5.5 0 1 0-1 0m-7-6a.5.5 0 1 0 1 0 .5.5 0 1 0-1 0"/></svg>