<svg xmlns="http://www.w3.org/2000/svg" viewBox="0 0 24 24">
    <path d="M16.298 12.234c-.26-.08-.44-.135-.302-.483.295-.757.326-1.41.006-1.876-.601-.873-2.244-.827-4.128-.022 0 0-.592.263-.44-.216.289-.948.245-1.741-.206-2.2C10.206 6.396 7 8 5.155 9.849 3.311 11.7 2.396 13 2.396 15.138c0 3.115 3.925 5.198 7.764 5.198 5.034 0 8.382-3.166 8.382-5.529 0-1.428-1.182-2.238-2.244-2.574Z M7.035 15.628c-.23-1.142.696-2.293 2.066-2.568 1.372-.276 2.67.427 2.899 1.569s-.696 2.292-2.066 2.568c-1.372.276-2.67-.426-2.899-1.569M22.5 9.253a6.33 6.33 0 0 0-6.331-6.328.738.738 0 1 0 0 1.476 4.855 4.855 0 0 1 4.854 4.855.738.738 0 1 0 1.477 0zm-2.935-.108A4.23 4.23 0 0 0 16.28 5.86a.74.74 0 0 0-.298 1.447 2.75 2.75 0 0 1 2.135 2.135.74.74 0 0 0 1.448-.297"/>
</svg>