<svg viewBox="0 0 16 16"  xmlns="http://www.w3.org/2000/svg">
<path d="M15.8406 4.79995C15.8406 4.79995 15.6844 3.69683 15.2031 3.21245C14.5938 2.57495 13.9125 2.57183 13.6 2.53433C11.3625 2.37183 8.00313 2.37183 8.00313 2.37183H7.99687C7.99687 2.37183 4.6375 2.37183 2.4 2.53433C2.0875 2.57183 1.40625 2.57495 0.796875 3.21245C0.315625 3.69683 0.1625 4.79995 0.1625 4.79995C0.1625 4.79995 0 6.09683 0 7.39058V8.60308C0 9.89683 0.159375 11.1937 0.159375 11.1937C0.159375 11.1937 0.315625 12.2968 0.79375 12.7812C1.40313 13.4187 2.20313 13.3968 2.55938 13.4656C3.84063 13.5875 8 13.625 8 13.625C8 13.625 11.3625 13.6187 13.6 13.4593C13.9125 13.4218 14.5938 13.4187 15.2031 12.7812C15.6844 12.2968 15.8406 11.1937 15.8406 11.1937C15.8406 11.1937 16 9.89995 16 8.60308V7.39058C16 6.09683 15.8406 4.79995 15.8406 4.79995ZM6.34688 10.075V5.57808L10.6687 7.83433L6.34688 10.075Z"/>
</svg>
